<?xml version="1.0" encoding="UTF-8" standalone="no"?>
<svg
   xmlns:dc="http://purl.org/dc/elements/1.1/"
   xmlns:cc="http://creativecommons.org/ns#"
   xmlns:rdf="http://www.w3.org/1999/02/22-rdf-syntax-ns#"
   xmlns:svg="http://www.w3.org/2000/svg"
   xmlns="http://www.w3.org/2000/svg"
   viewBox="0 0 341.33334 341.33334"
   height="341.33334"
   width="341.33334"
   xml:space="preserve"
   id="svg2"
   version="1.1"><metadata
     id="metadata8"><rdf:RDF><cc:Work
         rdf:about=""><dc:format>image/svg+xml</dc:format><dc:type
           rdf:resource="http://purl.org/dc/dcmitype/StillImage" /></cc:Work></rdf:RDF></metadata><defs
     id="defs6"><clipPath
       id="clipPath18"
       clipPathUnits="userSpaceOnUse"><path
         id="path16"
         d="M 30,256 C 13.418,256 0,242.582 0,226 V 226 30 C 0,13.418 13.418,0 30,0 v 0 h 196 c 16.582,0 30,13.418 30,30 v 0 196 c 0,16.582 -13.418,30 -30,30 v 0 z" /></clipPath><clipPath
       id="clipPath64"
       clipPathUnits="userSpaceOnUse"><path
         id="path62"
         d="m 30.5,240.5 c -8.25,0 -15,-6.75 -15,-15 v 0 -195 c 0,-8.25 6.75,-15 15,-15 v 0 h 195 c 8.25,0 15,6.75 15,15 v 0 195 c 0,8.25 -6.75,15 -15,15 v 0 z" /></clipPath><linearGradient
       id="linearGradient82"
       spreadMethod="pad"
       gradientTransform="matrix(216.1875,216.1875,216.1875,-216.1875,19.90625,19.90625)"
       gradientUnits="userSpaceOnUse"
       y2="0"
       x2="1"
       y1="0"
       x1="0"><stop
         id="stop74"
         offset="0"
         style="stop-opacity:0.09999237;stop-color:#ffffff" /><stop
         id="stop76"
         offset="0.65731439"
         style="stop-opacity:0.09999237;stop-color:#ffffff" /><stop
         id="stop78"
         offset="0.969388"
         style="stop-opacity:0.29999237;stop-color:#ffffff" /><stop
         id="stop80"
         offset="1"
         style="stop-opacity:0.2;stop-color:#ffffff" /></linearGradient><mask
       id="mask84"
       height="1"
       width="1"
       y="0"
       x="0"
       maskUnits="userSpaceOnUse"><g
         id="g94"><g
           id="g92"><g
             id="g90"><g
               id="g88"><path
                 id="path86"
                 style="fill:url(#linearGradient82);stroke:none"
                 d="M -32768,32767 H 32767 V -32768 H -32768 Z" /></g></g></g></g></mask><linearGradient
       id="linearGradient108"
       spreadMethod="pad"
       gradientTransform="matrix(216.1875,216.1875,216.1875,-216.1875,19.90625,19.90625)"
       gradientUnits="userSpaceOnUse"
       y2="0"
       x2="1"
       y1="0"
       x1="0"><stop
         id="stop100"
         offset="0"
         style="stop-opacity:1;stop-color:#ffffff" /><stop
         id="stop102"
         offset="0.65731439"
         style="stop-opacity:1;stop-color:#ffffff" /><stop
         id="stop104"
         offset="0.969388"
         style="stop-opacity:1;stop-color:#ffffff" /><stop
         id="stop106"
         offset="1"
         style="stop-opacity:1;stop-color:#ffffff" /></linearGradient><clipPath
       id="clipPath118"
       clipPathUnits="userSpaceOnUse"><path
         id="path116"
         d="M 0,256 H 256 V 0 H 0 Z" /></clipPath><clipPath
       id="clipPath126"
       clipPathUnits="userSpaceOnUse"><path
         id="path124"
         d="M 0,256 H 256 V 0 H 0 Z" /></clipPath></defs><g
     transform="matrix(1.3333333,0,0,-1.3333333,0,341.33333)"
     id="g10"><g
       id="g12"><g
         clip-path="url(#clipPath18)"
         id="g14"><path
           id="path20"
           style="fill:#ffffff;fill-opacity:1;fill-rule:nonzero;stroke:none"
           d="M 383.732,0.029 H -127.999 V 256 h 511.731 z" /><g
           transform="translate(102.2768,102.4945)"
           id="g22"><path
             id="path24"
             style="fill:#cf142b;fill-opacity:1;fill-rule:nonzero;stroke:none"
             d="M 0,0 V -102.466 H 51.179 V 0 H 281.456 V 51.173 H 51.179 V 153.506 H 0 V 51.173 H -230.277 V 0 Z" /></g><g
           transform="translate(170.5215,173.1418)"
           id="g26"><path
             id="path28"
             style="fill:#00247d;fill-opacity:1;fill-rule:nonzero;stroke:none"
             d="M 0,0 V 82.858 H 165.683 Z" /></g><g
           transform="translate(170.5215,82.8871)"
           id="g30"><path
             id="path32"
             style="fill:#00247d;fill-opacity:1;fill-rule:nonzero;stroke:none"
             d="M 0,0 V -82.858 H 165.683 Z" /></g><g
           transform="translate(85.2108,82.8871)"
           id="g34"><path
             id="path36"
             style="fill:#00247d;fill-opacity:1;fill-rule:nonzero;stroke:none"
             d="M 0,0 V -82.858 H -165.683 Z" /></g><g
           transform="translate(85.2108,173.1418)"
           id="g38"><path
             id="path40"
             style="fill:#00247d;fill-opacity:1;fill-rule:nonzero;stroke:none"
             d="M 0,0 V 82.858 H -165.683 Z" /></g><g
           transform="translate(383.7318,256)"
           id="g42"><path
             id="path44"
             style="fill:#cf142b;fill-opacity:1;fill-rule:nonzero;stroke:none"
             d="m 0,0 h -28.423 l -170.306,-85.322 h 28.423 L 0.268,0" /></g><g
           transform="translate(70.729,85.3547)"
           id="g46"><path
             id="path48"
             style="fill:#cf142b;fill-opacity:1;fill-rule:nonzero;stroke:none"
             d="m 0,0 h -28.423 l -170.306,-85.322 h 28.423 L 0.268,0" /></g><g
           transform="translate(14.1095,170.6121)"
           id="g50"><path
             id="path52"
             style="fill:#cf142b;fill-opacity:1;fill-rule:nonzero;stroke:none"
             d="M 0,0 H 28.423 L -142.109,85.388 V 71.078 Z" /></g><g
           transform="translate(241.5318,85.3878)"
           id="g54"><path
             id="path56"
             style="fill:#cf142b;fill-opacity:1;fill-rule:nonzero;stroke:none"
             d="m 0,0 h -28.423 l 170.532,-85.388 v 14.31 z" /></g></g></g><g
       id="g58"><g
         clip-path="url(#clipPath64)"
         id="g60"><g
           id="g66"><g
             id="g68" /><g
             mask="url(#mask84)"
             id="g96"><g
               id="g98"><path
                 id="path110"
                 style="fill:url(#linearGradient108);stroke:none"
                 d="m 30.5,240.5 c -8.25,0 -15,-6.75 -15,-15 v 0 -195 c 0,-8.25 6.75,-15 15,-15 v 0 h 195 c 8.25,0 15,6.75 15,15 v 0 195 c 0,8.25 -6.75,15 -15,15 v 0 z" /></g></g></g></g></g><g
       id="g112"><g
         clip-path="url(#clipPath118)"
         id="g114"><g
           id="g120"><g
             id="g122" /><g
             id="g134"><g
               style="opacity:0.10000598"
               id="g132"
               clip-path="url(#clipPath126)"><g
                 id="g130"
                 transform="translate(226,256)"><path
                   id="path128"
                   style="fill:#231f20;fill-opacity:1;fill-rule:nonzero;stroke:none"
                   d="m 0,0 h -196 c -16.5,0 -30,-13.5 -30,-30 v -196 c 0,-16.5 13.5,-30 30,-30 H 0 c 16.5,0 30,13.5 30,30 V -30 C 30,-13.5 16.5,0 0,0 m 0,-15.5 c 7.995,0 14.5,-6.505 14.5,-14.5 v -196 c 0,-7.995 -6.505,-14.5 -14.5,-14.5 h -196 c -7.995,0 -14.5,6.505 -14.5,14.5 v 196 c 0,7.995 6.505,14.5 14.5,14.5 H 0" /></g></g></g></g></g></g></g></svg>