<?xml version="1.0" encoding="UTF-8" standalone="no"?>
<svg
   xmlns:dc="http://purl.org/dc/elements/1.1/"
   xmlns:cc="http://creativecommons.org/ns#"
   xmlns:rdf="http://www.w3.org/1999/02/22-rdf-syntax-ns#"
   xmlns:svg="http://www.w3.org/2000/svg"
   xmlns="http://www.w3.org/2000/svg"
   viewBox="0 0 341.33334 341.33334"
   height="341.33334"
   width="341.33334"
   xml:space="preserve"
   id="svg2"
   version="1.1"><metadata
     id="metadata8"><rdf:RDF><cc:Work
         rdf:about=""><dc:format>image/svg+xml</dc:format><dc:type
           rdf:resource="http://purl.org/dc/dcmitype/StillImage" /></cc:Work></rdf:RDF></metadata><defs
     id="defs6"><clipPath
       id="clipPath18"
       clipPathUnits="userSpaceOnUse"><path
         id="path16"
         d="M 30,256 C 13.418,256 0,242.582 0,226 V 226 30 C 0,13.418 13.418,0 30,0 v 0 h 196 c 16.582,0 30,13.418 30,30 v 0 196 c 0,16.582 -13.418,30 -30,30 v 0 z" /></clipPath><clipPath
       id="clipPath160"
       clipPathUnits="userSpaceOnUse"><path
         id="path158"
         d="m 30.5,240.5 c -8.25,0 -15,-6.75 -15,-15 v 0 -195 c 0,-8.25 6.75,-15 15,-15 v 0 h 195 c 8.25,0 15,6.75 15,15 v 0 195 c 0,8.25 -6.75,15 -15,15 v 0 z" /></clipPath><linearGradient
       id="linearGradient178"
       spreadMethod="pad"
       gradientTransform="matrix(216.1875,216.1875,216.1875,-216.1875,19.90625,19.90625)"
       gradientUnits="userSpaceOnUse"
       y2="0"
       x2="1"
       y1="0"
       x1="0"><stop
         id="stop170"
         offset="0"
         style="stop-opacity:0.09999237;stop-color:#ffffff" /><stop
         id="stop172"
         offset="0.65731439"
         style="stop-opacity:0.09999237;stop-color:#ffffff" /><stop
         id="stop174"
         offset="0.969388"
         style="stop-opacity:0.29999237;stop-color:#ffffff" /><stop
         id="stop176"
         offset="1"
         style="stop-opacity:0.2;stop-color:#ffffff" /></linearGradient><mask
       id="mask180"
       height="1"
       width="1"
       y="0"
       x="0"
       maskUnits="userSpaceOnUse"><g
         id="g190"><g
           id="g188"><g
             id="g186"><g
               id="g184"><path
                 id="path182"
                 style="fill:url(#linearGradient178);stroke:none"
                 d="M -32768,32767 H 32767 V -32768 H -32768 Z" /></g></g></g></g></mask><linearGradient
       id="linearGradient204"
       spreadMethod="pad"
       gradientTransform="matrix(216.1875,216.1875,216.1875,-216.1875,19.90625,19.90625)"
       gradientUnits="userSpaceOnUse"
       y2="0"
       x2="1"
       y1="0"
       x1="0"><stop
         id="stop196"
         offset="0"
         style="stop-opacity:1;stop-color:#ffffff" /><stop
         id="stop198"
         offset="0.65731439"
         style="stop-opacity:1;stop-color:#ffffff" /><stop
         id="stop200"
         offset="0.969388"
         style="stop-opacity:1;stop-color:#ffffff" /><stop
         id="stop202"
         offset="1"
         style="stop-opacity:1;stop-color:#ffffff" /></linearGradient><clipPath
       id="clipPath214"
       clipPathUnits="userSpaceOnUse"><path
         id="path212"
         d="M 0,256 H 256 V 0 H 0 Z" /></clipPath><clipPath
       id="clipPath222"
       clipPathUnits="userSpaceOnUse"><path
         id="path220"
         d="M 0,256 H 256 V 0 H 0 Z" /></clipPath></defs><g
     transform="matrix(1.3333333,0,0,-1.3333333,0,341.33333)"
     id="g10"><g
       id="g12"><g
         clip-path="url(#clipPath18)"
         id="g14"><path
           id="path20"
           style="fill:#239f40;fill-opacity:1;fill-rule:nonzero;stroke:none"
           d="M -95.256,256 H 351.256 V 0 H -95.256 Z" /><path
           id="path22"
           style="fill:#ffffff;fill-opacity:1;fill-rule:nonzero;stroke:none"
           d="M -95.256,170.667 H 351.256 V 85.334 H -95.256 Z" /><path
           id="path24"
           style="fill:#da0000;fill-opacity:1;fill-rule:nonzero;stroke:none"
           d="M -95.256,85.333 H 351.256 V 0 H -95.256 Z" /><g
           transform="translate(114.1085,175.6444)"
           id="g26"><path
             id="path28"
             style="fill:none;stroke:#ffffff;stroke-width:1.71700001;stroke-linecap:square;stroke-linejoin:miter;stroke-miterlimit:4;stroke-dasharray:none;stroke-opacity:1"
             d="M 0,0 H 0.002 M 27.783,7.964 V 0 M 23.814,3.982 V 0 h 7.938 V 7.964 M 19.845,0 h -3.969 v 3.982 h 7.938 V 7.964 M -3.969,0 V 3.982 H 3.969 V 0 h 7.938 V 3.982 H 7.938 M -3.969,7.964 h 23.814" /></g><g
           transform="translate(129.9845,171.2355)"
           id="g30"><path
             id="path32"
             style="fill:none;stroke:#ffffff;stroke-width:1.71700001;stroke-linecap:square;stroke-linejoin:miter;stroke-miterlimit:4;stroke-dasharray:none;stroke-opacity:1"
             d="M 0,0 H 15.876 M -19.845,0 H -3.969" /></g><g
           transform="translate(114.1085,72.3911)"
           id="g34"><path
             id="path36"
             style="fill:none;stroke:#ffffff;stroke-width:1.71700001;stroke-linecap:square;stroke-linejoin:miter;stroke-miterlimit:4;stroke-dasharray:none;stroke-opacity:1"
             d="M 0,0 H 0.002 M 27.783,7.964 V 0 M 23.814,3.982 V 0 h 7.938 V 7.964 M 19.845,0 h -3.969 v 3.982 h 7.938 V 7.964 M -3.969,0 V 3.982 H 3.969 V 0 h 7.938 V 3.982 H 7.938 M -3.969,7.964 h 23.814" /></g><g
           transform="translate(129.9845,84.7645)"
           id="g38"><path
             id="path40"
             style="fill:none;stroke:#ffffff;stroke-width:1.71700001;stroke-linecap:square;stroke-linejoin:miter;stroke-miterlimit:4;stroke-dasharray:none;stroke-opacity:1"
             d="M 0,0 H 15.876 M -19.845,0 H -3.969" /></g><g
           transform="translate(153.7984,175.6444)"
           id="g42"><path
             id="path44"
             style="fill:none;stroke:#ffffff;stroke-width:1.71700001;stroke-linecap:square;stroke-linejoin:miter;stroke-miterlimit:4;stroke-dasharray:none;stroke-opacity:1"
             d="M 0,0 H 0.002 M 27.783,7.964 V 0 M 23.814,3.982 V 0 h 7.938 V 7.964 M 19.845,0 h -3.969 v 3.982 h 7.938 V 7.964 M -3.969,0 V 3.982 H 3.969 V 0 h 7.938 V 3.982 H 7.938 M -3.969,7.964 h 23.814" /></g><g
           transform="translate(169.6744,171.2355)"
           id="g46"><path
             id="path48"
             style="fill:none;stroke:#ffffff;stroke-width:1.71700001;stroke-linecap:square;stroke-linejoin:miter;stroke-miterlimit:4;stroke-dasharray:none;stroke-opacity:1"
             d="M 0,0 H 15.876 M -19.845,0 H -3.969" /></g><g
           transform="translate(153.7984,72.3911)"
           id="g50"><path
             id="path52"
             style="fill:none;stroke:#ffffff;stroke-width:1.71700001;stroke-linecap:square;stroke-linejoin:miter;stroke-miterlimit:4;stroke-dasharray:none;stroke-opacity:1"
             d="M 0,0 H 0.002 M 27.783,7.964 V 0 M 23.814,3.982 V 0 h 7.938 V 7.964 M 19.845,0 h -3.969 v 3.982 h 7.938 V 7.964 M -3.969,0 V 3.982 H 3.969 V 0 h 7.938 V 3.982 H 7.938 M -3.969,7.964 h 23.814" /></g><g
           transform="translate(169.6744,84.7645)"
           id="g54"><path
             id="path56"
             style="fill:none;stroke:#ffffff;stroke-width:1.71700001;stroke-linecap:square;stroke-linejoin:miter;stroke-miterlimit:4;stroke-dasharray:none;stroke-opacity:1"
             d="M 0,0 H 15.876 M -19.845,0 H -3.969" /></g><g
           transform="translate(34.7287,175.6444)"
           id="g58"><path
             id="path60"
             style="fill:none;stroke:#ffffff;stroke-width:1.71700001;stroke-linecap:square;stroke-linejoin:miter;stroke-miterlimit:4;stroke-dasharray:none;stroke-opacity:1"
             d="M 0,0 H 0.002 M 27.783,7.964 V 0 M 23.814,3.982 V 0 h 7.938 V 7.964 M 19.845,0 h -3.969 v 3.982 h 7.938 V 7.964 M -3.969,0 V 3.982 H 3.969 V 0 h 7.938 V 3.982 H 7.938 M -3.969,7.964 h 23.814" /></g><g
           transform="translate(50.6047,171.2355)"
           id="g62"><path
             id="path64"
             style="fill:none;stroke:#ffffff;stroke-width:1.71700001;stroke-linecap:square;stroke-linejoin:miter;stroke-miterlimit:4;stroke-dasharray:none;stroke-opacity:1"
             d="M 0,0 H 15.876 M -19.845,0 H -3.969" /></g><g
           transform="translate(34.7287,72.3911)"
           id="g66"><path
             id="path68"
             style="fill:none;stroke:#ffffff;stroke-width:1.71700001;stroke-linecap:square;stroke-linejoin:miter;stroke-miterlimit:4;stroke-dasharray:none;stroke-opacity:1"
             d="M 0,0 H 0.002 M 27.783,7.964 V 0 M 23.814,3.982 V 0 h 7.938 V 7.964 M 19.845,0 h -3.969 v 3.982 h 7.938 V 7.964 M -3.969,0 V 3.982 H 3.969 V 0 h 7.938 V 3.982 H 7.938 M -3.969,7.964 h 23.814" /></g><g
           transform="translate(50.6047,84.7645)"
           id="g70"><path
             id="path72"
             style="fill:none;stroke:#ffffff;stroke-width:1.71700001;stroke-linecap:square;stroke-linejoin:miter;stroke-miterlimit:4;stroke-dasharray:none;stroke-opacity:1"
             d="M 0,0 H 15.876 M -19.845,0 H -3.969" /></g><g
           transform="translate(74.4186,175.6444)"
           id="g74"><path
             id="path76"
             style="fill:none;stroke:#ffffff;stroke-width:1.71700001;stroke-linecap:square;stroke-linejoin:miter;stroke-miterlimit:4;stroke-dasharray:none;stroke-opacity:1"
             d="M 0,0 H 0.002 M 27.783,7.964 V 0 M 23.814,3.982 V 0 h 7.938 V 7.964 M 19.845,0 h -3.969 v 3.982 h 7.938 V 7.964 M -3.969,0 V 3.982 H 3.969 V 0 h 7.938 V 3.982 H 7.938 M -3.969,7.964 h 23.814" /></g><g
           transform="translate(90.2946,171.2355)"
           id="g78"><path
             id="path80"
             style="fill:none;stroke:#ffffff;stroke-width:1.71700001;stroke-linecap:square;stroke-linejoin:miter;stroke-miterlimit:4;stroke-dasharray:none;stroke-opacity:1"
             d="M 0,0 H 15.876 M -19.845,0 H -3.969" /></g><g
           transform="translate(74.4186,72.3911)"
           id="g82"><path
             id="path84"
             style="fill:none;stroke:#ffffff;stroke-width:1.71700001;stroke-linecap:square;stroke-linejoin:miter;stroke-miterlimit:4;stroke-dasharray:none;stroke-opacity:1"
             d="M 0,0 H 0.002 M 27.783,7.964 V 0 M 23.814,3.982 V 0 h 7.938 V 7.964 M 19.845,0 h -3.969 v 3.982 h 7.938 V 7.964 M -3.969,0 V 3.982 H 3.969 V 0 h 7.938 V 3.982 H 7.938 M -3.969,7.964 h 23.814" /></g><g
           transform="translate(90.2946,84.7645)"
           id="g86"><path
             id="path88"
             style="fill:none;stroke:#ffffff;stroke-width:1.71700001;stroke-linecap:square;stroke-linejoin:miter;stroke-miterlimit:4;stroke-dasharray:none;stroke-opacity:1"
             d="M 0,0 H 15.876 M -19.845,0 H -3.969" /></g><g
           transform="translate(193.4884,175.6444)"
           id="g90"><path
             id="path92"
             style="fill:none;stroke:#ffffff;stroke-width:1.71700001;stroke-linecap:square;stroke-linejoin:miter;stroke-miterlimit:4;stroke-dasharray:none;stroke-opacity:1"
             d="M 0,0 H 0.002 M 27.783,7.964 V 0 M 23.814,3.982 V 0 h 7.938 V 7.964 M 19.845,0 h -3.969 v 3.982 h 7.938 V 7.964 M -3.969,0 V 3.982 H 3.969 V 0 h 7.938 V 3.982 H 7.938 M -3.969,7.964 h 23.814" /></g><g
           transform="translate(209.3643,171.2355)"
           id="g94"><path
             id="path96"
             style="fill:none;stroke:#ffffff;stroke-width:1.71700001;stroke-linecap:square;stroke-linejoin:miter;stroke-miterlimit:4;stroke-dasharray:none;stroke-opacity:1"
             d="M 0,0 H 15.876 M -19.845,0 H -3.969" /></g><g
           transform="translate(193.4884,72.3911)"
           id="g98"><path
             id="path100"
             style="fill:none;stroke:#ffffff;stroke-width:1.71700001;stroke-linecap:square;stroke-linejoin:miter;stroke-miterlimit:4;stroke-dasharray:none;stroke-opacity:1"
             d="M 0,0 H 0.002 M 27.783,7.964 V 0 M 23.814,3.982 V 0 h 7.938 V 7.964 M 19.845,0 h -3.969 v 3.982 h 7.938 V 7.964 M -3.969,0 V 3.982 H 3.969 V 0 h 7.938 V 3.982 H 7.938 M -3.969,7.964 h 23.814" /></g><g
           transform="translate(209.3643,84.7645)"
           id="g102"><path
             id="path104"
             style="fill:none;stroke:#ffffff;stroke-width:1.71700001;stroke-linecap:square;stroke-linejoin:miter;stroke-miterlimit:4;stroke-dasharray:none;stroke-opacity:1"
             d="M 0,0 H 15.876 M -19.845,0 H -3.969" /></g><g
           transform="translate(233.1783,175.6444)"
           id="g106"><path
             id="path108"
             style="fill:none;stroke:#ffffff;stroke-width:1.71700001;stroke-linecap:square;stroke-linejoin:miter;stroke-miterlimit:4;stroke-dasharray:none;stroke-opacity:1"
             d="M 0,0 H 0.002 M 27.783,7.964 V 0 M 23.814,3.982 V 0 h 7.938 V 7.964 M 19.845,0 h -3.969 v 3.982 h 7.938 V 7.964 M -3.969,0 V 3.982 H 3.969 V 0 h 7.938 V 3.982 H 7.938 M -3.969,7.964 h 23.814" /></g><g
           transform="translate(249.0543,171.2355)"
           id="g110"><path
             id="path112"
             style="fill:none;stroke:#ffffff;stroke-width:1.71700001;stroke-linecap:square;stroke-linejoin:miter;stroke-miterlimit:4;stroke-dasharray:none;stroke-opacity:1"
             d="M 0,0 H 15.876 M -19.845,0 H -3.969" /></g><g
           transform="translate(233.1783,72.3911)"
           id="g114"><path
             id="path116"
             style="fill:none;stroke:#ffffff;stroke-width:1.71700001;stroke-linecap:square;stroke-linejoin:miter;stroke-miterlimit:4;stroke-dasharray:none;stroke-opacity:1"
             d="M 0,0 H 0.002 M 27.783,7.964 V 0 M 23.814,3.982 V 0 h 7.938 V 7.964 M 19.845,0 h -3.969 v 3.982 h 7.938 V 7.964 M -3.969,0 V 3.982 H 3.969 V 0 h 7.938 V 3.982 H 7.938 M -3.969,7.964 h 23.814" /></g><g
           transform="translate(249.0543,84.7645)"
           id="g118"><path
             id="path120"
             style="fill:none;stroke:#ffffff;stroke-width:1.71700001;stroke-linecap:square;stroke-linejoin:miter;stroke-miterlimit:4;stroke-dasharray:none;stroke-opacity:1"
             d="M 0,0 H 15.876 M -19.845,0 H -3.969" /></g><g
           transform="translate(-4.9612,175.6444)"
           id="g122"><path
             id="path124"
             style="fill:none;stroke:#ffffff;stroke-width:1.71700001;stroke-linecap:square;stroke-linejoin:miter;stroke-miterlimit:4;stroke-dasharray:none;stroke-opacity:1"
             d="M 0,0 H 0.002 M 27.783,7.964 V 0 M 23.814,3.982 V 0 h 7.938 V 7.964 M 19.845,0 h -3.969 v 3.982 h 7.938 V 7.964 M -3.969,0 V 3.982 H 3.969 V 0 h 7.938 V 3.982 H 7.938 M -3.969,7.964 h 23.814" /></g><g
           transform="translate(10.9147,171.2355)"
           id="g126"><path
             id="path128"
             style="fill:none;stroke:#ffffff;stroke-width:1.71700001;stroke-linecap:square;stroke-linejoin:miter;stroke-miterlimit:4;stroke-dasharray:none;stroke-opacity:1"
             d="M 0,0 H 15.876 M -19.845,0 H -3.969" /></g><g
           transform="translate(-4.9612,72.3911)"
           id="g130"><path
             id="path132"
             style="fill:none;stroke:#ffffff;stroke-width:1.71700001;stroke-linecap:square;stroke-linejoin:miter;stroke-miterlimit:4;stroke-dasharray:none;stroke-opacity:1"
             d="M 0,0 H 0.002 M 27.783,7.964 V 0 M 23.814,3.982 V 0 h 7.938 V 7.964 M 19.845,0 h -3.969 v 3.982 h 7.938 V 7.964 M -3.969,0 V 3.982 H 3.969 V 0 h 7.938 V 3.982 H 7.938 M -3.969,7.964 h 23.814" /></g><g
           transform="translate(10.9147,84.7645)"
           id="g134"><path
             id="path136"
             style="fill:none;stroke:#ffffff;stroke-width:1.71700001;stroke-linecap:square;stroke-linejoin:miter;stroke-miterlimit:4;stroke-dasharray:none;stroke-opacity:1"
             d="M 0,0 H 15.876 M -19.845,0 H -3.969" /></g><g
           transform="translate(140.9928,150.8753)"
           id="g138"><path
             id="path140"
             style="fill:#da0000;fill-opacity:1;fill-rule:nonzero;stroke:none"
             d="M 0,0 C 0,0 23.077,-18.107 6.114,-44.13 22.091,-34.334 23.471,-7.396 0,0" /></g><g
           transform="translate(128.0003,153.4478)"
           id="g142"><path
             id="path144"
             style="fill:#da0000;fill-opacity:1;fill-rule:nonzero;stroke:none"
             d="M 0,0 C -3.674,-4.156 -9.985,-0.025 -7.815,4.502 -4.019,-2.325 0,3.191 0,3.191 0,3.191 4.019,-2.325 7.816,4.502 9.985,-0.025 3.674,-4.156 0,0" /></g><g
           transform="translate(128.0003,97.0467)"
           id="g146"><path
             id="path148"
             style="fill:#da0000;fill-opacity:1;fill-rule:nonzero;stroke:none"
             d="m 0,0 -2.638,3.463 c 0,0 -6.213,-2.077 -14.398,0.792 6.706,0 10.453,1.188 11.834,1.88 0,0 -15.188,8.213 -14.892,24.935 0.888,16.92 9.862,22.066 9.862,22.066 0,0 -15.976,-23.352 7.495,-42.869 L -3.772,34.411 V 52.147 C -2.441,52.469 0,55.289 0,55.289 c 0,0 2.44,-2.82 3.772,-3.142 V 34.411 L 2.736,10.267 c 23.471,19.517 7.494,42.87 7.494,42.87 0,0 8.975,-5.145 9.862,-22.066 C 20.388,14.349 5.2,6.136 5.2,6.136 6.581,5.444 10.329,4.256 17.035,4.256 8.849,1.387 2.636,3.465 2.636,3.465 L -0.002,0.002 Z" /></g><g
           transform="translate(115.0078,150.8753)"
           id="g150"><path
             id="path152"
             style="fill:#da0000;fill-opacity:1;fill-rule:nonzero;stroke:none"
             d="M 0,0 C 0,0 -23.077,-18.107 -6.114,-44.13 -22.091,-34.334 -23.472,-7.396 0,0" /></g></g></g><g
       id="g154"><g
         clip-path="url(#clipPath160)"
         id="g156"><g
           id="g162"><g
             id="g164" /><g
             mask="url(#mask180)"
             id="g192"><g
               id="g194"><path
                 id="path206"
                 style="fill:url(#linearGradient204);stroke:none"
                 d="m 30.5,240.5 c -8.25,0 -15,-6.75 -15,-15 v 0 -195 c 0,-8.25 6.75,-15 15,-15 v 0 h 195 c 8.25,0 15,6.75 15,15 v 0 195 c 0,8.25 -6.75,15 -15,15 v 0 z" /></g></g></g></g></g><g
       id="g208"><g
         clip-path="url(#clipPath214)"
         id="g210"><g
           id="g216"><g
             id="g218" /><g
             id="g230"><g
               style="opacity:0.10000598"
               id="g228"
               clip-path="url(#clipPath222)"><g
                 id="g226"
                 transform="translate(226,256)"><path
                   id="path224"
                   style="fill:#231f20;fill-opacity:1;fill-rule:nonzero;stroke:none"
                   d="m 0,0 h -196 c -16.5,0 -30,-13.5 -30,-30 v -196 c 0,-16.5 13.5,-30 30,-30 H 0 c 16.5,0 30,13.5 30,30 V -30 C 30,-13.5 16.5,0 0,0 m 0,-15.5 c 7.995,0 14.5,-6.505 14.5,-14.5 v -196 c 0,-7.995 -6.505,-14.5 -14.5,-14.5 h -196 c -7.995,0 -14.5,6.505 -14.5,14.5 v 196 c 0,7.995 6.505,14.5 14.5,14.5 H 0" /></g></g></g></g></g></g></g></svg>